<svg version="1.1" xmlns="http://www.w3.org/2000/svg" viewBox="0 0 7161.821766837167 1120" width="7161.821766837167" height="1120">
  <!-- svg-source:excalidraw -->
  
  <defs>
    <style>
      @font-face {
        font-family: "Virgil";
        src: url("https://unpkg.com/@zsviczian/excalidraw@0.12.0-obsidian-10/dist/excalidraw-assets/Virgil.woff2");
      }
      @font-face {
        font-family: "Cascadia";
        src: url("https://unpkg.com/@zsviczian/excalidraw@0.12.0-obsidian-10/dist/excalidraw-assets/Cascadia.woff2");
      }
    </style>
  </defs>
  <rect x="0" y="0" width="7161.821766837167" height="1120" fill="#ffffff"/><g stroke-linecap="round"><g transform="translate(4684.821766837167 790) rotate(0 0 80)"><path d="M0 0 C0 26.67, 0 133.33, 0 160 M0 0 C0 26.67, 0 133.33, 0 160" stroke="#c92a2a" stroke-width="2" fill="none"/></g><g transform="translate(4684.821766837167 790) rotate(0 0 80)"><path d="M-10.26 131.81 C-6.27 142.76, -2.29 153.71, 0 160 M-10.26 131.81 C-7.09 140.51, -3.93 149.22, 0 160" stroke="#c92a2a" stroke-width="2" fill="none"/></g><g transform="translate(4684.821766837167 790) rotate(0 0 80)"><path d="M10.26 131.81 C6.27 142.76, 2.29 153.71, 0 160 M10.26 131.81 C7.09 140.51, 3.93 149.22, 0 160" stroke="#c92a2a" stroke-width="2" fill="none"/></g></g><g stroke-linecap="round"><g transform="translate(6444.821766837167 790) rotate(0 0 80)"><path d="M0 0 C0 26.67, 0 133.33, 0 160 M0 0 C0 26.67, 0 133.33, 0 160" stroke="#c92a2a" stroke-width="2" fill="none"/></g><g transform="translate(6444.821766837167 790) rotate(0 0 80)"><path d="M-10.26 131.81 C-6.69 141.63, -3.11 151.45, 0 160 M-10.26 131.81 C-6.97 140.84, -3.69 149.87, 0 160" stroke="#c92a2a" stroke-width="2" fill="none"/></g><g transform="translate(6444.821766837167 790) rotate(0 0 80)"><path d="M10.26 131.81 C6.69 141.63, 3.11 151.45, 0 160 M10.26 131.81 C6.97 140.84, 3.69 149.87, 0 160" stroke="#c92a2a" stroke-width="2" fill="none"/></g></g><g stroke-linecap="round"><g transform="translate(4684.821766837167 790) rotate(0 880 0)"><path d="M0 0 C293.33 0, 1466.67 0, 1760 0 M0 0 C293.33 0, 1466.67 0, 1760 0" stroke="#c92a2a" stroke-width="2" fill="none"/></g></g><g stroke-linecap="round"><g transform="translate(1004.8217668371672 610) rotate(0 0 170)"><path d="M0 0 C0 56.67, 0 283.33, 0 340 M0 0 C0 56.67, 0 283.33, 0 340" stroke="#364fc7" stroke-width="2" fill="none"/></g><g transform="translate(1004.8217668371672 610) rotate(0 0 170)"><path d="M-10.26 311.81 C-6.93 320.95, -3.6 330.1, 0 340 M-10.26 311.81 C-7.73 318.77, -5.2 325.72, 0 340" stroke="#364fc7" stroke-width="2" fill="none"/></g><g transform="translate(1004.8217668371672 610) rotate(0 0 170)"><path d="M10.26 311.81 C6.93 320.95, 3.6 330.1, 0 340 M10.26 311.81 C7.73 318.77, 5.2 325.72, 0 340" stroke="#364fc7" stroke-width="2" fill="none"/></g></g><g stroke-linecap="round"><g transform="translate(2444.821766837167 610) rotate(0 0 170)"><path d="M0 0 C0 56.67, 0 283.33, 0 340 M0 0 C0 56.67, 0 283.33, 0 340" stroke="#364fc7" stroke-width="2" fill="none"/></g><g transform="translate(2444.821766837167 610) rotate(0 0 170)"><path d="M-10.26 311.81 C-7.82 318.52, -5.38 325.23, 0 340 M-10.26 311.81 C-8.18 317.53, -6.1 323.25, 0 340" stroke="#364fc7" stroke-width="2" fill="none"/></g><g transform="translate(2444.821766837167 610) rotate(0 0 170)"><path d="M10.26 311.81 C7.82 318.52, 5.38 325.23, 0 340 M10.26 311.81 C8.18 317.53, 6.1 323.25, 0 340" stroke="#364fc7" stroke-width="2" fill="none"/></g></g><g stroke-linecap="round"><g transform="translate(1004.8217668371672 610) rotate(0 720 0)"><path d="M0 0 C240 0, 1200 0, 1440 0 M0 0 C240 0, 1200 0, 1440 0" stroke="#364fc7" stroke-width="2" fill="none"/></g></g><g stroke-linecap="round"><g transform="translate(4364.821766837167 985.5005418637492) rotate(0 0 60)"><path d="M0 0 C0 20, 0 100, 0 120 M0 0 C0 20, 0 100, 0 120" stroke="#000000" stroke-width="4" fill="none"/></g></g><g stroke-linecap="round"><g transform="translate(3884.821766837167 985.5005418637492) rotate(0 0 60)"><path d="M0 0 C0 20, 0 100, 0 120 M0 0 C0 20, 0 100, 0 120" stroke="#000000" stroke-width="4" fill="none"/></g></g><g stroke-linecap="round"><g transform="translate(3404.821766837167 985.5005418637492) rotate(0 0 60)"><path d="M0 0 C0 20, 0 100, 0 120 M0 0 C0 20, 0 100, 0 120" stroke="#000000" stroke-width="4" fill="none"/></g></g><g stroke-linecap="round"><g transform="translate(2924.821766837167 985.5005418637492) rotate(0 0 60)"><path d="M0 0 C0 20, 0 100, 0 120 M0 0 C0 20, 0 100, 0 120" stroke="#000000" stroke-width="4" fill="none"/></g></g><g stroke-linecap="round"><g transform="translate(2444.821766837167 985.5005418637492) rotate(0 0 60)"><path d="M0 0 C0 20, 0 100, 0 120 M0 0 C0 20, 0 100, 0 120" stroke="#000000" stroke-width="4" fill="none"/></g></g><g stroke-linecap="round"><g transform="translate(1964.8217668371672 985.5005418637492) rotate(0 0 60)"><path d="M0 0 C0 20, 0 100, 0 120 M0 0 C0 20, 0 100, 0 120" stroke="#000000" stroke-width="4" fill="none"/></g></g><g stroke-linecap="round"><g transform="translate(1484.8217668371672 985.5005418637492) rotate(0 0 60)"><path d="M0 0 C0 20, 0 100, 0 120 M0 0 C0 20, 0 100, 0 120" stroke="#000000" stroke-width="4" fill="none"/></g></g><g stroke-linecap="round"><g transform="translate(1004.8217668371672 985.5005418637492) rotate(0 0 60)"><path d="M0 0 C0 20, 0 100, 0 120 M0 0 C0 20, 0 100, 0 120" stroke="#000000" stroke-width="4" fill="none"/></g></g><g stroke-linecap="round"><g transform="translate(524.8217668371672 985.5005418637492) rotate(0 0 60)"><path d="M0 0 C0 20, 0 100, 0 120 M0 0 C0 20, 0 100, 0 120" stroke="#000000" stroke-width="4" fill="none"/></g></g><g stroke-linecap="round"><g transform="translate(44.82176683716716 985.5005418637492) rotate(0 0 60)"><path d="M0 0 C0 20, 0 100, 0 120 M0 0 C0 20, 0 100, 0 120" stroke="#000000" stroke-width="4" fill="none"/></g></g><g stroke-linecap="round"><g transform="translate(4524.821766837167 985.5005418637492) rotate(0 0 60)"><path d="M0 0 C0 20, 0 100, 0 120 M0 0 C0 20, 0 100, 0 120" stroke="#000000" stroke-width="4" fill="none"/></g></g><g stroke-linecap="round"><g transform="translate(5004.821766837167 985.5005418637492) rotate(0 0 60)"><path d="M0 0 C0 20, 0 100, 0 120 M0 0 C0 20, 0 100, 0 120" stroke="#000000" stroke-width="4" fill="none"/></g></g><g stroke-linecap="round"><g transform="translate(5484.821766837167 985.5005418637492) rotate(0 0 60)"><path d="M0 0 C0 20, 0 100, 0 120 M0 0 C0 20, 0 100, 0 120" stroke="#000000" stroke-width="4" fill="none"/></g></g><g stroke-linecap="round"><g transform="translate(5964.821766837167 985.5005418637492) rotate(0 0 62.24972906812542)"><path d="M0 0 C0 20.75, 0 103.75, 0 124.5 M0 0 C0 20.75, 0 103.75, 0 124.5" stroke="#000000" stroke-width="4" fill="none"/></g></g><g stroke-linecap="round"><g transform="translate(4044.821766837167 985.5005418637492) rotate(0 0 60)"><path d="M0 0 C0 20, 0 100, 0 120 M0 0 C0 20, 0 100, 0 120" stroke="#000000" stroke-width="4" fill="none"/></g></g><g stroke-linecap="round"><g transform="translate(3564.821766837167 985.5005418637492) rotate(0 0 60)"><path d="M0 0 C0 20, 0 100, 0 120 M0 0 C0 20, 0 100, 0 120" stroke="#000000" stroke-width="4" fill="none"/></g></g><g stroke-linecap="round"><g transform="translate(3084.821766837167 985.5005418637492) rotate(0 0 60)"><path d="M0 0 C0 20, 0 100, 0 120 M0 0 C0 20, 0 100, 0 120" stroke="#000000" stroke-width="4" fill="none"/></g></g><g stroke-linecap="round"><g transform="translate(2604.821766837167 985.5005418637492) rotate(0 0 60)"><path d="M0 0 C0 20, 0 100, 0 120 M0 0 C0 20, 0 100, 0 120" stroke="#000000" stroke-width="4" fill="none"/></g></g><g stroke-linecap="round"><g transform="translate(2124.821766837167 985.5005418637492) rotate(0 0 60)"><path d="M0 0 C0 20, 0 100, 0 120 M0 0 C0 20, 0 100, 0 120" stroke="#000000" stroke-width="4" fill="none"/></g></g><g stroke-linecap="round"><g transform="translate(1644.8217668371672 985.5005418637492) rotate(0 0 60)"><path d="M0 0 C0 20, 0 100, 0 120 M0 0 C0 20, 0 100, 0 120" stroke="#000000" stroke-width="4" fill="none"/></g></g><g stroke-linecap="round"><g transform="translate(1164.8217668371672 985.5005418637492) rotate(0 0 60)"><path d="M0 0 C0 20, 0 100, 0 120 M0 0 C0 20, 0 100, 0 120" stroke="#000000" stroke-width="4" fill="none"/></g></g><g stroke-linecap="round"><g transform="translate(684.8217668371672 985.5005418637492) rotate(0 0 60)"><path d="M0 0 C0 20, 0 100, 0 120 M0 0 C0 20, 0 100, 0 120" stroke="#000000" stroke-width="4" fill="none"/></g></g><g stroke-linecap="round"><g transform="translate(204.82176683716716 985.5005418637492) rotate(0 0 60)"><path d="M0 0 C0 20, 0 100, 0 120 M0 0 C0 20, 0 100, 0 120" stroke="#000000" stroke-width="4" fill="none"/></g></g><g stroke-linecap="round"><g transform="translate(4684.821766837167 985.5005418637492) rotate(0 0 60)"><path d="M0 0 C0 20, 0 100, 0 120 M0 0 C0 20, 0 100, 0 120" stroke="#000000" stroke-width="4" fill="none"/></g></g><g stroke-linecap="round"><g transform="translate(5164.821766837167 985.5005418637492) rotate(0 0 60)"><path d="M0 0 C0 20, 0 100, 0 120 M0 0 C0 20, 0 100, 0 120" stroke="#000000" stroke-width="4" fill="none"/></g></g><g stroke-linecap="round"><g transform="translate(5644.821766837167 985.5005418637492) rotate(0 0 62.24972906812542)"><path d="M0 0 C0 20.75, 0 103.75, 0 124.5 M0 0 C0 20.75, 0 103.75, 0 124.5" stroke="#000000" stroke-width="4" fill="none"/></g></g><g stroke-linecap="round"><g transform="translate(6124.821766837167 985.5005418637492) rotate(0 0 62.24972906812542)"><path d="M0 0 C0 20.75, 0 103.75, 0 124.5 M0 0 C0 20.75, 0 103.75, 0 124.5" stroke="#000000" stroke-width="4" fill="none"/></g></g><g stroke-linecap="round"><g transform="translate(4204.821766837167 985.5005418637492) rotate(0 0 60)"><path d="M0 0 C0 20, 0 100, 0 120 M0 0 C0 20, 0 100, 0 120" stroke="#000000" stroke-width="4" fill="none"/></g></g><g stroke-linecap="round"><g transform="translate(3724.821766837167 985.5005418637492) rotate(0 0 60)"><path d="M0 0 C0 20, 0 100, 0 120 M0 0 C0 20, 0 100, 0 120" stroke="#000000" stroke-width="4" fill="none"/></g></g><g stroke-linecap="round"><g transform="translate(3244.821766837167 985.5005418637492) rotate(0 0 60)"><path d="M0 0 C0 20, 0 100, 0 120 M0 0 C0 20, 0 100, 0 120" stroke="#000000" stroke-width="4" fill="none"/></g></g><g stroke-linecap="round"><g transform="translate(2764.821766837167 985.5005418637492) rotate(0 0 60)"><path d="M0 0 C0 20, 0 100, 0 120 M0 0 C0 20, 0 100, 0 120" stroke="#000000" stroke-width="4" fill="none"/></g></g><g stroke-linecap="round"><g transform="translate(2284.821766837167 985.5005418637492) rotate(0 0 60)"><path d="M0 0 C0 20, 0 100, 0 120 M0 0 C0 20, 0 100, 0 120" stroke="#000000" stroke-width="4" fill="none"/></g></g><g stroke-linecap="round"><g transform="translate(1804.8217668371672 985.5005418637492) rotate(0 0 60)"><path d="M0 0 C0 20, 0 100, 0 120 M0 0 C0 20, 0 100, 0 120" stroke="#000000" stroke-width="4" fill="none"/></g></g><g stroke-linecap="round"><g transform="translate(1324.8217668371672 985.5005418637492) rotate(0 0 60)"><path d="M0 0 C0 20, 0 100, 0 120 M0 0 C0 20, 0 100, 0 120" stroke="#000000" stroke-width="4" fill="none"/></g></g><g stroke-linecap="round"><g transform="translate(844.8217668371672 985.5005418637492) rotate(0 0 60)"><path d="M0 0 C0 20, 0 100, 0 120 M0 0 C0 20, 0 100, 0 120" stroke="#000000" stroke-width="4" fill="none"/></g></g><g stroke-linecap="round"><g transform="translate(364.82176683716716 985.5005418637492) rotate(0 0 60)"><path d="M0 0 C0 20, 0 100, 0 120 M0 0 C0 20, 0 100, 0 120" stroke="#000000" stroke-width="4" fill="none"/></g></g><g stroke-linecap="round"><g transform="translate(4844.821766837167 985.5005418637492) rotate(0 0 60)"><path d="M0 0 C0 20, 0 100, 0 120 M0 0 C0 20, 0 100, 0 120" stroke="#000000" stroke-width="4" fill="none"/></g></g><g stroke-linecap="round"><g transform="translate(5324.821766837167 985.5005418637492) rotate(0 0 60)"><path d="M0 0 C0 20, 0 100, 0 120 M0 0 C0 20, 0 100, 0 120" stroke="#000000" stroke-width="4" fill="none"/></g></g><g stroke-linecap="round"><g transform="translate(5804.821766837167 985.5005418637492) rotate(0 0 62.24972906812542)"><path d="M0 0 C0 20.75, 0 103.75, 0 124.5 M0 0 C0 20.75, 0 103.75, 0 124.5" stroke="#000000" stroke-width="4" fill="none"/></g></g><g stroke-linecap="round"><g transform="translate(6284.821766837167 985.5005418637492) rotate(0 0 62.24972906812542)"><path d="M0 0 C0 20.75, 0 103.75, 0 124.5 M0 0 C0 20.75, 0 103.75, 0 124.5" stroke="#000000" stroke-width="4" fill="none"/></g></g><g stroke-linecap="round"><g transform="translate(6444.821766837167 985.5005418637492) rotate(0 0 62.24972906812542)"><path d="M0 0 C0 20.75, 0 103.75, 0 124.5 M0 0 C0 20.75, 0 103.75, 0 124.5" stroke="#000000" stroke-width="4" fill="none"/></g></g><g stroke-linecap="round"><g transform="translate(6604.821766837167 990) rotate(0 0 60)"><path d="M0 0 C0 20, 0 100, 0 120 M0 0 C0 20, 0 100, 0 120" stroke="#000000" stroke-width="4" fill="none"/></g></g><g stroke-linecap="round"><g transform="translate(6764.821766837167 990) rotate(0 0 60)"><path d="M0 0 C0 20, 0 100, 0 120 M0 0 C0 20, 0 100, 0 120" stroke="#000000" stroke-width="4" fill="none"/></g></g><g stroke-linecap="round"><g transform="translate(6924.821766837167 990) rotate(0 0 60)"><path d="M0 0 C0 20, 0 100, 0 120 M0 0 C0 20, 0 100, 0 120" stroke="#000000" stroke-width="4" fill="none"/></g></g><g stroke-linecap="round"><g transform="translate(7084.821766837167 990) rotate(0 0 60)"><path d="M0 0 C0 20, 0 100, 0 120 M0 0 C0 20, 0 100, 0 120" stroke="#000000" stroke-width="4" fill="none"/></g></g><g stroke-linecap="round"><g transform="translate(7084.821766837167 1110) rotate(0 -3520 -2.2497290681254185)"><path d="M0 0 C-1173.33 -0.75, -5866.67 -3.75, -7040 -4.5 M0 0 C-1173.33 -0.75, -5866.67 -3.75, -7040 -4.5" stroke="#000000" stroke-width="4" fill="none"/></g></g><g stroke-linecap="round"><g transform="translate(44.82176683716807 310) rotate(0 -4.547473508864641e-13 320)"><path d="M0 0 C0 106.67, 0 533.33, 0 640 M0 0 C0 106.67, 0 533.33, 0 640" stroke="#c92a2a" stroke-width="2" fill="none"/></g><g transform="translate(44.82176683716807 310) rotate(0 -4.547473508864641e-13 320)"><path d="M-10.26 611.81 C-6.38 622.46, -2.5 633.12, 0 640 M-10.26 611.81 C-7.57 619.2, -4.88 626.6, 0 640" stroke="#c92a2a" stroke-width="2" fill="none"/></g><g transform="translate(44.82176683716807 310) rotate(0 -4.547473508864641e-13 320)"><path d="M10.26 611.81 C6.38 622.46, 2.5 633.12, 0 640 M10.26 611.81 C7.57 619.2, 4.88 626.6, 0 640" stroke="#c92a2a" stroke-width="2" fill="none"/></g></g><g stroke-linecap="round"><g transform="translate(5804.821766837167 310) rotate(0 0 320)"><path d="M0 0 C0 106.67, 0 533.33, 0 640 M0 0 C0 106.67, 0 533.33, 0 640" stroke="#c92a2a" stroke-width="2" fill="none"/></g><g transform="translate(5804.821766837167 310) rotate(0 0 320)"><path d="M-10.26 611.81 C-6.59 621.9, -2.92 631.99, 0 640 M-10.26 611.81 C-6.82 621.27, -3.37 630.73, 0 640" stroke="#c92a2a" stroke-width="2" fill="none"/></g><g transform="translate(5804.821766837167 310) rotate(0 0 320)"><path d="M10.26 611.81 C6.59 621.9, 2.92 631.99, 0 640 M10.26 611.81 C6.82 621.27, 3.37 630.73, 0 640" stroke="#c92a2a" stroke-width="2" fill="none"/></g></g><g stroke-linecap="round"><g transform="translate(44.82176683716716 310) rotate(0 2880 0)"><path d="M0 0 C960 0, 4800 0, 5760 0 M0 0 C960 0, 4800 0, 5760 0" stroke="#c92a2a" stroke-width="2" fill="none"/></g></g><g transform="translate(2624.821766837167 270) rotate(0 294 20.5)"><text x="294" y="33" font-family="Helvetica, Segoe UI Emoji" font-size="36px" fill="#000000" text-anchor="middle" style="white-space: pre;" direction="ltr">2520 years for the 10 tribes of Israel </text></g><g transform="translate(3424.821766837167 350) rotate(0 289 20.5)"><text x="289" y="33" font-family="Helvetica, Segoe UI Emoji" font-size="36px" fill="#000000" text-anchor="middle" style="white-space: pre;" direction="ltr">2520 years for the 2 tribes of Judah </text></g><g transform="translate(4044.821766837167 430) rotate(0 90 20.5)"><text x="90" y="33" font-family="Helvetica, Segoe UI Emoji" font-size="36px" fill="#000000" text-anchor="middle" style="white-space: pre;" direction="ltr">2300 years</text></g><g stroke-linecap="round"><g transform="translate(204.82176683716716 390) rotate(0 0 280)"><path d="M0 0 C0 93.33, 0 466.67, 0 560 M0 0 C0 93.33, 0 466.67, 0 560" stroke="#364fc7" stroke-width="2" fill="none"/></g><g transform="translate(204.82176683716716 390) rotate(0 0 280)"><path d="M-10.26 531.81 C-6.32 542.64, -2.38 553.47, 0 560 M-10.26 531.81 C-7.12 540.43, -3.98 549.06, 0 560" stroke="#364fc7" stroke-width="2" fill="none"/></g><g transform="translate(204.82176683716716 390) rotate(0 0 280)"><path d="M10.26 531.81 C6.32 542.64, 2.38 553.47, 0 560 M10.26 531.81 C7.12 540.43, 3.98 549.06, 0 560" stroke="#364fc7" stroke-width="2" fill="none"/></g></g><g stroke-linecap="round"><g transform="translate(7084.821766837167 390) rotate(0 0 280)"><path d="M0 0 C0 93.33, 0 466.67, 0 560 M0 0 C0 93.33, 0 466.67, 0 560" stroke="#364fc7" stroke-width="2" fill="none"/></g><g transform="translate(7084.821766837167 390) rotate(0 0 280)"><path d="M-10.26 531.81 C-8.04 537.9, -5.83 543.99, 0 560 M-10.26 531.81 C-7.69 538.88, -5.11 545.96, 0 560" stroke="#364fc7" stroke-width="2" fill="none"/></g><g transform="translate(7084.821766837167 390) rotate(0 0 280)"><path d="M10.26 531.81 C8.04 537.9, 5.83 543.99, 0 560 M10.26 531.81 C7.69 538.88, 5.11 545.96, 0 560" stroke="#364fc7" stroke-width="2" fill="none"/></g></g><g stroke-linecap="round"><g transform="translate(7084.821766837167 390) rotate(0 -3440 0)"><path d="M0 0 C-1146.67 0, -5733.33 0, -6880 0 M0 0 C-1146.67 0, -5733.33 0, -6880 0" stroke="#364fc7" stroke-width="2" fill="none"/></g></g><g stroke-linecap="round"><g transform="translate(204.82176683716716 690) rotate(0 0 130)"><path d="M0 0 C0 43.33, 0 216.67, 0 260 M0 0 C0 43.33, 0 216.67, 0 260" stroke="#c92a2a" stroke-width="2" fill="none"/></g><g transform="translate(204.82176683716716 690) rotate(0 0 130)"><path d="M-10.26 231.81 C-6.71 241.57, -3.15 251.33, 0 260 M-10.26 231.81 C-6.21 242.93, -2.16 254.05, 0 260" stroke="#c92a2a" stroke-width="2" fill="none"/></g><g transform="translate(204.82176683716716 690) rotate(0 0 130)"><path d="M10.26 231.81 C6.71 241.57, 3.15 251.33, 0 260 M10.26 231.81 C6.21 242.93, 2.16 254.05, 0 260" stroke="#c92a2a" stroke-width="2" fill="none"/></g></g><g stroke-linecap="round"><g transform="translate(684.8217668371672 690) rotate(0 0 130)"><path d="M0 0 C0 43.33, 0 216.67, 0 260 M0 0 C0 43.33, 0 216.67, 0 260" stroke="#c92a2a" stroke-width="2" fill="none"/></g><g transform="translate(684.8217668371672 690) rotate(0 0 130)"><path d="M-10.26 231.81 C-6.2 242.97, -2.14 254.12, 0 260 M-10.26 231.81 C-6.48 242.21, -2.69 252.6, 0 260" stroke="#c92a2a" stroke-width="2" fill="none"/></g><g transform="translate(684.8217668371672 690) rotate(0 0 130)"><path d="M10.26 231.81 C6.2 242.97, 2.14 254.12, 0 260 M10.26 231.81 C6.48 242.21, 2.69 252.6, 0 260" stroke="#c92a2a" stroke-width="2" fill="none"/></g></g><g stroke-linecap="round"><g transform="translate(204.82176683716716 690) rotate(0 240 0)"><path d="M0 0 C80 0, 400 0, 480 0 M0 0 C80 0, 400 0, 480 0" stroke="#c92a2a" stroke-width="2" fill="none"/></g></g><g stroke-linecap="round"><g transform="translate(364.82176683716716 770) rotate(0 0 90)"><path d="M0 0 C0 30, 0 150, 0 180 M0 0 C0 30, 0 150, 0 180" stroke="#364fc7" stroke-width="2" fill="none"/></g><g transform="translate(364.82176683716716 770) rotate(0 0 90)"><path d="M-10.26 151.81 C-6.9 161.05, -3.54 170.29, 0 180 M-10.26 151.81 C-6.91 161.01, -3.56 170.22, 0 180" stroke="#364fc7" stroke-width="2" fill="none"/></g><g transform="translate(364.82176683716716 770) rotate(0 0 90)"><path d="M10.26 151.81 C6.9 161.05, 3.54 170.29, 0 180 M10.26 151.81 C6.91 161.01, 3.56 170.22, 0 180" stroke="#364fc7" stroke-width="2" fill="none"/></g></g><g stroke-linecap="round"><g transform="translate(844.8217668371672 770) rotate(0 0 90)"><path d="M0 0 C0 30, 0 150, 0 180 M0 0 C0 30, 0 150, 0 180" stroke="#364fc7" stroke-width="2" fill="none"/></g><g transform="translate(844.8217668371672 770) rotate(0 0 90)"><path d="M-10.26 151.81 C-6.94 160.93, -3.62 170.04, 0 180 M-10.26 151.81 C-7.4 159.67, -4.54 167.53, 0 180" stroke="#364fc7" stroke-width="2" fill="none"/></g><g transform="translate(844.8217668371672 770) rotate(0 0 90)"><path d="M10.26 151.81 C6.94 160.93, 3.62 170.04, 0 180 M10.26 151.81 C7.4 159.67, 4.54 167.53, 0 180" stroke="#364fc7" stroke-width="2" fill="none"/></g></g><g stroke-linecap="round"><g transform="translate(364.82176683716716 770) rotate(0 240 0)"><path d="M0 0 C80 0, 400 0, 480 0 M0 0 C80 0, 400 0, 480 0" stroke="#364fc7" stroke-width="2" fill="none"/></g></g><g transform="translate(344.82176683716716 666.8000559267384) rotate(0 89.5 11.5)"><text x="89.5" y="18" font-family="Helvetica, Segoe UI Emoji" font-size="20px" fill="#000000" text-anchor="middle" style="white-space: pre;" direction="ltr">70 years of Babylon</text></g><g transform="translate(490.2014261041645 744.9743312871796) rotate(0 112.5 11.5)"><text x="112.5" y="18" font-family="Helvetica, Segoe UI Emoji" font-size="20px" fill="#000000" text-anchor="middle" style="white-space: pre;" direction="ltr">70-year Babylon captivity</text></g><g stroke-linecap="round"><g transform="translate(1004.8217668371672 470) rotate(0 0 240)"><path d="M0 0 C0 80, 0 400, 0 480 M0 0 C0 80, 0 400, 0 480" stroke="#c92a2a" stroke-width="2" fill="none"/></g><g transform="translate(1004.8217668371672 470) rotate(0 0 240)"><path d="M-10.26 451.81 C-7.97 458.09, -5.69 464.37, 0 480 M-10.26 451.81 C-6.64 461.77, -3.01 471.73, 0 480" stroke="#c92a2a" stroke-width="2" fill="none"/></g><g transform="translate(1004.8217668371672 470) rotate(0 0 240)"><path d="M10.26 451.81 C7.97 458.09, 5.69 464.37, 0 480 M10.26 451.81 C6.64 461.77, 3.01 471.73, 0 480" stroke="#c92a2a" stroke-width="2" fill="none"/></g></g><g stroke-linecap="round"><g transform="translate(7084.821766837167 470) rotate(0 0 240)"><path d="M0 0 C0 80, 0 400, 0 480 M0 0 C0 80, 0 400, 0 480" stroke="#c92a2a" stroke-width="2" fill="none"/></g><g transform="translate(7084.821766837167 470) rotate(0 0 240)"><path d="M-10.26 451.81 C-6.64 461.77, -3.01 471.73, 0 480 M-10.26 451.81 C-6.57 461.95, -2.88 472.09, 0 480" stroke="#c92a2a" stroke-width="2" fill="none"/></g><g transform="translate(7084.821766837167 470) rotate(0 0 240)"><path d="M10.26 451.81 C6.64 461.77, 3.01 471.73, 0 480 M10.26 451.81 C6.57 461.95, 2.88 472.09, 0 480" stroke="#c92a2a" stroke-width="2" fill="none"/></g></g><g stroke-linecap="round"><g transform="translate(7084.821766837167 470) rotate(0 -3040 0)"><path d="M0 0 C-1013.33 0, -5066.67 0, -6080 0 M0 0 C-1013.33 0, -5066.67 0, -6080 0" stroke="#c92a2a" stroke-width="2" fill="none"/></g></g><g stroke-linecap="round"><g transform="translate(1164.8217668371672 670) rotate(0 0 140)"><path d="M0 0 C0 46.67, 0 233.33, 0 280 M0 0 C0 46.67, 0 233.33, 0 280" stroke="#c92a2a" stroke-width="2" fill="none"/></g><g transform="translate(1164.8217668371672 670) rotate(0 0 140)"><path d="M-10.26 251.81 C-7.44 259.57, -4.61 267.32, 0 280 M-10.26 251.81 C-8 258.02, -5.74 264.23, 0 280" stroke="#c92a2a" stroke-width="2" fill="none"/></g><g transform="translate(1164.8217668371672 670) rotate(0 0 140)"><path d="M10.26 251.81 C7.44 259.57, 4.61 267.32, 0 280 M10.26 251.81 C8 258.02, 5.74 264.23, 0 280" stroke="#c92a2a" stroke-width="2" fill="none"/></g></g><g stroke-linecap="round"><g transform="translate(2124.821766837167 670) rotate(0 0 140)"><path d="M0 0 C0 46.67, 0 233.33, 0 280 M0 0 C0 46.67, 0 233.33, 0 280" stroke="#c92a2a" stroke-width="2" fill="none"/></g><g transform="translate(2124.821766837167 670) rotate(0 0 140)"><path d="M-10.26 251.81 C-7.22 260.16, -4.18 268.52, 0 280 M-10.26 251.81 C-7.33 259.87, -4.39 267.93, 0 280" stroke="#c92a2a" stroke-width="2" fill="none"/></g><g transform="translate(2124.821766837167 670) rotate(0 0 140)"><path d="M10.26 251.81 C7.22 260.16, 4.18 268.52, 0 280 M10.26 251.81 C7.33 259.87, 4.39 267.93, 0 280" stroke="#c92a2a" stroke-width="2" fill="none"/></g></g><g stroke-linecap="round"><g transform="translate(1164.8217668371672 670) rotate(0 480 0)"><path d="M0 0 C160 0, 800 0, 960 0 M0 0 C160 0, 800 0, 960 0" stroke="#c92a2a" stroke-width="2" fill="none"/></g></g><g stroke-linecap="round"><g transform="translate(1005.082856681111 850.2997250856986) rotate(0 -0.13054492197193213 49.85013745715074)"><path d="M0 0 C-0.04 16.62, -0.22 83.08, -0.26 99.7 M0 0 C-0.04 16.62, -0.22 83.08, -0.26 99.7" stroke="#364fc7" stroke-width="2" fill="none"/></g><g transform="translate(1005.082856681111 850.2997250856986) rotate(0 -0.13054492197193213 49.85013745715074)"><path d="M-10.45 71.48 C-7.59 79.39, -4.74 87.3, -0.26 99.7 M-10.45 71.48 C-6.76 81.7, -3.07 91.91, -0.26 99.7" stroke="#364fc7" stroke-width="2" fill="none"/></g><g transform="translate(1005.082856681111 850.2997250856986) rotate(0 -0.13054492197193213 49.85013745715074)"><path d="M10.07 71.54 C7.18 79.43, 4.28 87.33, -0.26 99.7 M10.07 71.54 C6.33 81.73, 2.59 91.92, -0.26 99.7" stroke="#364fc7" stroke-width="2" fill="none"/></g></g><g stroke-linecap="round"><g transform="translate(1164.8217668371672 850) rotate(0 0 50)"><path d="M0 0 C0 16.67, 0 83.33, 0 100 M0 0 C0 16.67, 0 83.33, 0 100" stroke="#364fc7" stroke-width="2" fill="none"/></g><g transform="translate(1164.8217668371672 850) rotate(0 0 50)"><path d="M-10.26 71.81 C-6.55 82.01, -2.83 92.22, 0 100 M-10.26 71.81 C-8.09 77.77, -5.92 83.72, 0 100" stroke="#364fc7" stroke-width="2" fill="none"/></g><g transform="translate(1164.8217668371672 850) rotate(0 0 50)"><path d="M10.26 71.81 C6.55 82.01, 2.83 92.22, 0 100 M10.26 71.81 C8.09 77.77, 5.92 83.72, 0 100" stroke="#364fc7" stroke-width="2" fill="none"/></g></g><g stroke-linecap="round"><g transform="translate(1004.8217668371672 850) rotate(0 80 0)"><path d="M0 0 C26.67 0, 133.33 0, 160 0 M0 0 C26.67 0, 133.33 0, 160 0" stroke="#364fc7" stroke-width="2" fill="none"/></g></g><g stroke-linecap="round"><g transform="translate(2124.821766837167 850) rotate(0 0 50)"><path d="M0 0 C0 16.67, 0 83.33, 0 100 M0 0 C0 16.67, 0 83.33, 0 100" stroke="#c92a2a" stroke-width="2" fill="none"/></g><g transform="translate(2124.821766837167 850) rotate(0 0 50)"><path d="M-10.26 71.81 C-6.55 81.99, -2.85 92.17, 0 100 M-10.26 71.81 C-6.94 80.93, -3.62 90.04, 0 100" stroke="#c92a2a" stroke-width="2" fill="none"/></g><g transform="translate(2124.821766837167 850) rotate(0 0 50)"><path d="M10.26 71.81 C6.55 81.99, 2.85 92.17, 0 100 M10.26 71.81 C6.94 80.93, 3.62 90.04, 0 100" stroke="#c92a2a" stroke-width="2" fill="none"/></g></g><g stroke-linecap="round"><g transform="translate(2124.821766837167 870) rotate(0 80 0)"><path d="M0 0 C26.67 0, 133.33 0, 160 0 M0 0 C26.67 0, 133.33 0, 160 0" stroke="#c92a2a" stroke-width="2" fill="none"/></g></g><g stroke-linecap="round"><g transform="translate(2124.821766837167 810) rotate(0 0 70)"><path d="M0 0 C0 23.33, 0 116.67, 0 140 M0 0 C0 23.33, 0 116.67, 0 140" stroke="#364fc7" stroke-width="2" fill="none"/></g><g transform="translate(2124.821766837167 810) rotate(0 0 70)"><path d="M-10.26 111.81 C-7.43 119.58, -4.6 127.35, 0 140 M-10.26 111.81 C-6.96 120.88, -3.66 129.94, 0 140" stroke="#364fc7" stroke-width="2" fill="none"/></g><g transform="translate(2124.821766837167 810) rotate(0 0 70)"><path d="M10.26 111.81 C7.43 119.58, 4.6 127.35, 0 140 M10.26 111.81 C6.96 120.88, 3.66 129.94, 0 140" stroke="#364fc7" stroke-width="2" fill="none"/></g></g><g stroke-linecap="round"><g transform="translate(2444.821766837167 810) rotate(0 0 70)"><path d="M0 0 C0 23.33, 0 116.67, 0 140 M0 0 C0 23.33, 0 116.67, 0 140" stroke="#364fc7" stroke-width="2" fill="none"/></g><g transform="translate(2444.821766837167 810) rotate(0 0 70)"><path d="M-10.26 111.81 C-6.91 121.01, -3.57 130.2, 0 140 M-10.26 111.81 C-6.39 122.44, -2.52 133.06, 0 140" stroke="#364fc7" stroke-width="2" fill="none"/></g><g transform="translate(2444.821766837167 810) rotate(0 0 70)"><path d="M10.26 111.81 C6.91 121.01, 3.57 130.2, 0 140 M10.26 111.81 C6.39 122.44, 2.52 133.06, 0 140" stroke="#364fc7" stroke-width="2" fill="none"/></g></g><g stroke-linecap="round"><g transform="translate(2124.821766837167 810) rotate(0 160 0)"><path d="M0 0 C53.33 0, 266.67 0, 320 0 M0 0 C53.33 0, 266.67 0, 320 0" stroke="#364fc7" stroke-width="2" fill="none"/></g></g><g transform="translate(1011.5932921938233 825.4375260923977) rotate(0 74.5 11.5)"><text x="74.5" y="18" font-family="Helvetica, Segoe UI Emoji" font-size="20px" fill="#000000" text-anchor="middle" style="white-space: pre;" direction="ltr">7 weeks (49 yrs)</text></g><g transform="translate(1544.5734574912403 645.2436936000502) rotate(0 96.5 11.5)"><text x="96.5" y="18" font-family="Helvetica, Segoe UI Emoji" font-size="20px" fill="#000000" text-anchor="middle" style="white-space: pre;" direction="ltr">62 weeks (434 years)</text></g><g transform="translate(2204.164398358929 783.742954910646) rotate(0 75 11.5)"><text x="75" y="18" font-family="Helvetica, Segoe UI Emoji" font-size="20px" fill="#000000" text-anchor="middle" style="white-space: pre;" direction="ltr">1 week (7 years)</text></g><g transform="translate(1484.8217668371672 574.407490890196) rotate(0 229.5 16)"><text x="229.5" y="26" font-family="Helvetica, Segoe UI Emoji" font-size="28px" fill="#000000" text-anchor="middle" style="white-space: pre;" direction="ltr">70 weeks (490 years or "7 times 70")</text></g><g transform="translate(2162.958288517578 843.4266687576603) rotate(0 42 11.5)"><text x="42" y="18" font-family="Helvetica, Segoe UI Emoji" font-size="20px" fill="#000000" text-anchor="middle" style="white-space: pre;" direction="ltr">3.5 years</text></g><g transform="translate(2317.84663855275 843.4021671811388) rotate(0 42 11.5)"><text x="42" y="18" font-family="Helvetica, Segoe UI Emoji" font-size="20px" fill="#000000" text-anchor="middle" style="white-space: pre;" direction="ltr">3.5 years</text></g><g stroke-linecap="round"><g transform="translate(3884.920640123317 630) rotate(0 -0.04943664307489826 159.87002972597503)"><path d="M0 0 C-0.02 53.29, -0.08 266.45, -0.1 319.74 M0 0 C-0.02 53.29, -0.08 266.45, -0.1 319.74" stroke="#c92a2a" stroke-width="2" fill="none"/></g><g transform="translate(3884.920640123317 630) rotate(0 -0.04943664307489826 159.87002972597503)"><path d="M-10.35 291.55 C-8.02 297.96, -5.69 304.38, -0.1 319.74 M-10.35 291.55 C-8.22 297.41, -6.09 303.27, -0.1 319.74" stroke="#c92a2a" stroke-width="2" fill="none"/></g><g transform="translate(3884.920640123317 630) rotate(0 -0.04943664307489826 159.87002972597503)"><path d="M10.17 291.55 C7.83 297.97, 5.5 304.38, -0.1 319.74 M10.17 291.55 C8.04 297.41, 5.9 303.27, -0.1 319.74" stroke="#c92a2a" stroke-width="2" fill="none"/></g></g><g stroke-linecap="round"><g transform="translate(5804.821766837167 630) rotate(0 0 160)"><path d="M0 0 C0 53.33, 0 266.67, 0 320 M0 0 C0 53.33, 0 266.67, 0 320" stroke="#c92a2a" stroke-width="2" fill="none"/></g><g transform="translate(5804.821766837167 630) rotate(0 0 160)"><path d="M-10.26 291.81 C-7.05 300.63, -3.84 309.45, 0 320 M-10.26 291.81 C-6.3 302.68, -2.35 313.55, 0 320" stroke="#c92a2a" stroke-width="2" fill="none"/></g><g transform="translate(5804.821766837167 630) rotate(0 0 160)"><path d="M10.26 291.81 C7.05 300.63, 3.84 309.45, 0 320 M10.26 291.81 C6.3 302.68, 2.35 313.55, 0 320" stroke="#c92a2a" stroke-width="2" fill="none"/></g></g><g stroke-linecap="round"><g transform="translate(5804.821766837167 630) rotate(0 -959.9505633569252 0)"><path d="M0 0 C-319.98 0, -1599.92 0, -1919.9 0 M0 0 C-319.98 0, -1599.92 0, -1919.9 0" stroke="#c92a2a" stroke-width="2" fill="none"/></g></g><g stroke-linecap="round"><g transform="translate(4364.821766837167 710) rotate(0 0 120)"><path d="M0 0 C0 40, 0 200, 0 240 M0 0 C0 40, 0 200, 0 240" stroke="#364fc7" stroke-width="2" fill="none"/></g><g transform="translate(4364.821766837167 710) rotate(0 0 120)"><path d="M-10.26 211.81 C-7.69 218.89, -5.11 225.96, 0 240 M-10.26 211.81 C-6.61 221.85, -2.95 231.89, 0 240" stroke="#364fc7" stroke-width="2" fill="none"/></g><g transform="translate(4364.821766837167 710) rotate(0 0 120)"><path d="M10.26 211.81 C7.69 218.89, 5.11 225.96, 0 240 M10.26 211.81 C6.61 221.85, 2.95 231.89, 0 240" stroke="#364fc7" stroke-width="2" fill="none"/></g></g><g stroke-linecap="round"><g transform="translate(5804.821766837167 710) rotate(0 0 120)"><path d="M0 0 C0 40, 0 200, 0 240 M0 0 C0 40, 0 200, 0 240" stroke="#364fc7" stroke-width="2" fill="none"/></g><g transform="translate(5804.821766837167 710) rotate(0 0 120)"><path d="M-10.26 211.81 C-8.08 217.8, -5.9 223.8, 0 240 M-10.26 211.81 C-7.18 220.27, -4.1 228.73, 0 240" stroke="#364fc7" stroke-width="2" fill="none"/></g><g transform="translate(5804.821766837167 710) rotate(0 0 120)"><path d="M10.26 211.81 C8.08 217.8, 5.9 223.8, 0 240 M10.26 211.81 C7.18 220.27, 4.1 228.73, 0 240" stroke="#364fc7" stroke-width="2" fill="none"/></g></g><g stroke-linecap="round"><g transform="translate(5804.821766837167 710) rotate(0 -720 0)"><path d="M0 0 C-240 0, -1200 0, -1440 0 M0 0 C-240 0, -1200 0, -1440 0" stroke="#364fc7" stroke-width="2" fill="none"/></g></g><g stroke-linecap="round"><g transform="translate(3884.821766837167 550) rotate(0 -0.049737469770661846 199.87002972597503)"><path d="M0 0 C-0.02 66.62, -0.08 333.12, -0.1 399.74 M0 0 C-0.02 66.62, -0.08 333.12, -0.1 399.74" stroke="#364fc7" stroke-width="2" fill="none"/></g><g transform="translate(3884.821766837167 550) rotate(0 -0.049737469770661846 199.87002972597503)"><path d="M-10.35 371.55 C-6.46 382.26, -2.56 392.96, -0.1 399.74 M-10.35 371.55 C-6.89 381.08, -3.42 390.6, -0.1 399.74" stroke="#364fc7" stroke-width="2" fill="none"/></g><g transform="translate(3884.821766837167 550) rotate(0 -0.049737469770661846 199.87002972597503)"><path d="M10.17 371.55 C6.27 382.26, 2.37 392.97, -0.1 399.74 M10.17 371.55 C6.7 381.08, 3.23 390.61, -0.1 399.74" stroke="#364fc7" stroke-width="2" fill="none"/></g></g><g stroke-linecap="round"><g transform="translate(7084.821766837167 550) rotate(0 0 200)"><path d="M0 0 C0 66.67, 0 333.33, 0 400 M0 0 C0 66.67, 0 333.33, 0 400" stroke="#364fc7" stroke-width="2" fill="none"/></g><g transform="translate(7084.821766837167 550) rotate(0 0 200)"><path d="M-10.26 371.81 C-6.4 382.4, -2.55 393, 0 400 M-10.26 371.81 C-6.47 382.23, -2.68 392.65, 0 400" stroke="#364fc7" stroke-width="2" fill="none"/></g><g transform="translate(7084.821766837167 550) rotate(0 0 200)"><path d="M10.26 371.81 C6.4 382.4, 2.55 393, 0 400 M10.26 371.81 C6.47 382.23, 2.68 392.65, 0 400" stroke="#364fc7" stroke-width="2" fill="none"/></g></g><g stroke-linecap="round"><g transform="translate(7084.821766837167 550) rotate(0 -1600 0)"><path d="M0 0 C-533.33 0, -2666.67 0, -3200 0 M0 0 C-533.33 0, -2666.67 0, -3200 0" stroke="#364fc7" stroke-width="2" fill="none"/></g></g><g transform="translate(4764.961847953153 595.25846824576) rotate(0 70.5 16)"><text x="70.5" y="26" font-family="Helvetica, Segoe UI Emoji" font-size="28px" fill="#000000" text-anchor="middle" style="white-space: pre;" direction="ltr">1290 years</text></g><g transform="translate(5464.821766837167 510) rotate(0 90 20.5)"><text x="90" y="33" font-family="Helvetica, Segoe UI Emoji" font-size="36px" fill="#000000" text-anchor="middle" style="white-space: pre;" direction="ltr">1335 years</text></g><g stroke-linecap="round"><g transform="translate(1964.8217668371672 550) rotate(0 0 200)"><path d="M0 0 C0 66.67, 0 333.33, 0 400 M0 0 C0 66.67, 0 333.33, 0 400" stroke="#364fc7" stroke-width="2" fill="none"/></g><g transform="translate(1964.8217668371672 550) rotate(0 0 200)"><path d="M-10.26 371.81 C-6.95 380.89, -3.65 389.98, 0 400 M-10.26 371.81 C-7.53 379.32, -4.8 386.82, 0 400" stroke="#364fc7" stroke-width="2" fill="none"/></g><g transform="translate(1964.8217668371672 550) rotate(0 0 200)"><path d="M10.26 371.81 C6.95 380.89, 3.65 389.98, 0 400 M10.26 371.81 C7.53 379.32, 4.8 386.82, 0 400" stroke="#364fc7" stroke-width="2" fill="none"/></g></g><g stroke-linecap="round"><g transform="translate(3244.821766837167 550) rotate(0 0 200)"><path d="M0 0 C0 66.67, 0 333.33, 0 400 M0 0 C0 66.67, 0 333.33, 0 400" stroke="#364fc7" stroke-width="2" fill="none"/></g><g transform="translate(3244.821766837167 550) rotate(0 0 200)"><path d="M-10.26 371.81 C-6.7 381.59, -3.14 391.37, 0 400 M-10.26 371.81 C-6.43 382.33, -2.6 392.84, 0 400" stroke="#364fc7" stroke-width="2" fill="none"/></g><g transform="translate(3244.821766837167 550) rotate(0 0 200)"><path d="M10.26 371.81 C6.7 381.59, 3.14 391.37, 0 400 M10.26 371.81 C6.43 382.33, 2.6 392.84, 0 400" stroke="#364fc7" stroke-width="2" fill="none"/></g></g><g stroke-linecap="round"><g transform="translate(1964.8217668371672 550) rotate(0 640 0)"><path d="M0 0 C213.33 0, 1066.67 0, 1280 0 M0 0 C213.33 0, 1066.67 0, 1280 0" stroke="#364fc7" stroke-width="2" fill="none"/></g></g><g transform="translate(2365.1372629557172 514.0871088084906) rotate(0 238.5 16)"><text x="238.5" y="26" font-family="Helvetica, Segoe UI Emoji" font-size="28px" fill="#000000" text-anchor="middle" style="white-space: pre;" direction="ltr">360 years of strength for Pagan Rome</text></g><g transform="translate(4665.610507133542 674.4097752933715) rotate(0 412.5 16)"><text x="412.5" y="26" font-family="Helvetica, Segoe UI Emoji" font-size="28px" fill="#000000" text-anchor="middle" style="white-space: pre;" direction="ltr">1260 years of Papal reign ("42 months" or "time, times and a half")</text></g><g stroke-linecap="round"><g transform="translate(2284.821766837167 870) rotate(0 0 40)"><path d="M0 0 C0 13.33, 0 66.67, 0 80 M0 0 C0 13.33, 0 66.67, 0 80" stroke="#c92a2a" stroke-width="2" fill="none"/></g><g transform="translate(2284.821766837167 870) rotate(0 0 40)"><path d="M-10.26 51.81 C-7.39 59.7, -4.51 67.6, 0 80 M-10.26 51.81 C-8.13 57.65, -6.01 63.5, 0 80" stroke="#c92a2a" stroke-width="2" fill="none"/></g><g transform="translate(2284.821766837167 870) rotate(0 0 40)"><path d="M10.26 51.81 C7.39 59.7, 4.51 67.6, 0 80 M10.26 51.81 C8.13 57.65, 6.01 63.5, 0 80" stroke="#c92a2a" stroke-width="2" fill="none"/></g></g><g stroke-linecap="round"><g transform="translate(2284.821766837167 870) rotate(0 0 40)"><path d="M0 0 C0 13.33, 0 66.67, 0 80 M0 0 C0 13.33, 0 66.67, 0 80" stroke="#c92a2a" stroke-width="2" fill="none"/></g><g transform="translate(2284.821766837167 870) rotate(0 0 40)"><path d="M-10.26 51.81 C-6.81 61.28, -3.37 70.75, 0 80 M-10.26 51.81 C-8.14 57.65, -6.01 63.48, 0 80" stroke="#c92a2a" stroke-width="2" fill="none"/></g><g transform="translate(2284.821766837167 870) rotate(0 0 40)"><path d="M10.26 51.81 C6.81 61.28, 3.37 70.75, 0 80 M10.26 51.81 C8.14 57.65, 6.01 63.48, 0 80" stroke="#c92a2a" stroke-width="2" fill="none"/></g></g><g stroke-linecap="round"><g transform="translate(2444.821766837167 870) rotate(0 0 40)"><path d="M0 0 C0 13.33, 0 66.67, 0 80 M0 0 C0 13.33, 0 66.67, 0 80" stroke="#c92a2a" stroke-width="2" fill="none"/></g><g transform="translate(2444.821766837167 870) rotate(0 0 40)"><path d="M-10.26 51.81 C-7.96 58.14, -5.65 64.47, 0 80 M-10.26 51.81 C-6.7 61.6, -3.13 71.4, 0 80" stroke="#c92a2a" stroke-width="2" fill="none"/></g><g transform="translate(2444.821766837167 870) rotate(0 0 40)"><path d="M10.26 51.81 C7.96 58.14, 5.65 64.47, 0 80 M10.26 51.81 C6.7 61.6, 3.13 71.4, 0 80" stroke="#c92a2a" stroke-width="2" fill="none"/></g></g><g stroke-linecap="round"><g transform="translate(2284.821766837167 870) rotate(0 80 0)"><path d="M0 0 C26.67 0, 133.33 0, 160 0 M0 0 C26.67 0, 133.33 0, 160 0" stroke="#c92a2a" stroke-width="2" fill="none"/></g></g><g stroke-linecap="round"><g transform="translate(4524.821766837167 850) rotate(0 0.007942943864193808 50.79549286592393)"><path d="M0 0 C0 16.93, 0.01 84.66, 0.02 101.59 M0 0 C0 16.93, 0.01 84.66, 0.02 101.59" stroke="#364fc7" stroke-width="2" fill="none"/></g><g transform="translate(4524.821766837167 850) rotate(0 0.007942943864193808 50.79549286592393)"><path d="M-10.25 73.4 C-6.96 82.43, -3.67 91.46, 0.02 101.59 M-10.25 73.4 C-8.06 79.42, -5.87 85.43, 0.02 101.59" stroke="#364fc7" stroke-width="2" fill="none"/></g><g transform="translate(4524.821766837167 850) rotate(0 0.007942943864193808 50.79549286592393)"><path d="M10.27 73.4 C6.99 82.43, 3.7 91.46, 0.02 101.59 M10.27 73.4 C8.08 79.41, 5.9 85.43, 0.02 101.59" stroke="#364fc7" stroke-width="2" fill="none"/></g></g><g stroke-linecap="round"><g transform="translate(4684.821766837167 850) rotate(0 0 50)"><path d="M0 0 C0 16.67, 0 83.33, 0 100 M0 0 C0 16.67, 0 83.33, 0 100" stroke="#364fc7" stroke-width="2" fill="none"/></g><g transform="translate(4684.821766837167 850) rotate(0 0 50)"><path d="M-10.26 71.81 C-8.09 77.76, -5.93 83.71, 0 100 M-10.26 71.81 C-7.11 80.46, -3.96 89.12, 0 100" stroke="#364fc7" stroke-width="2" fill="none"/></g><g transform="translate(4684.821766837167 850) rotate(0 0 50)"><path d="M10.26 71.81 C8.09 77.76, 5.93 83.71, 0 100 M10.26 71.81 C7.11 80.46, 3.96 89.12, 0 100" stroke="#364fc7" stroke-width="2" fill="none"/></g></g><g stroke-linecap="round"><g transform="translate(4524.821766837167 850) rotate(0 80.2802070388748 0.031952962000190155)"><path d="M0 0 C26.76 0.01, 133.8 0.05, 160.56 0.06 M0 0 C26.76 0.01, 133.8 0.05, 160.56 0.06" stroke="#364fc7" stroke-width="2" fill="none"/></g></g><g transform="translate(4531.888021132049 829.5358736976933) rotate(0 73.5 9)"><text x="73.5" y="14" font-family="Helvetica, Segoe UI Emoji" font-size="16px" fill="#000000" text-anchor="middle" style="white-space: pre;" direction="ltr">150 yrs ("5 months")</text></g><g transform="translate(5289.393478659211 764.7036567058462) rotate(0 257.5 11.5)"><text x="257.5" y="18" font-family="Helvetica, Segoe UI Emoji" font-size="20px" fill="#000000" text-anchor="middle" style="white-space: pre;" direction="ltr">541 years ("an hour, and a day, and a month, and a year")</text></g><a href="obsidian://open?vault=Present%20Truth%20Study%20Vault&amp;file=Charts%20%26%20Diagrams%2FCorresponding%20Chart%20Docs%2FThe%20Time%20Prophecies"><g transform="translate(3044.821766837167 10) rotate(0 527.5 64.5)"><text x="527.5" y="103" font-family="Helvetica, Segoe UI Emoji" font-size="111.46896362817075px" fill="#000000" text-anchor="middle" style="white-space: pre;" direction="ltr">The Time Prophecies</text></g></a><g stroke-linecap="round"><g transform="translate(1644.8217668371672 750) rotate(0 0 100)"><path d="M0 0 C0 33.33, 0 166.67, 0 200 M0 0 C0 33.33, 0 166.67, 0 200" stroke="#c92a2a" stroke-width="2" fill="none"/></g><g transform="translate(1644.8217668371672 750) rotate(0 0 100)"><path d="M-10.26 171.81 C-7.29 179.96, -4.33 188.12, 0 200 M-10.26 171.81 C-8.11 177.71, -5.96 183.62, 0 200" stroke="#c92a2a" stroke-width="2" fill="none"/></g><g transform="translate(1644.8217668371672 750) rotate(0 0 100)"><path d="M10.26 171.81 C7.29 179.96, 4.33 188.12, 0 200 M10.26 171.81 C8.11 177.71, 5.96 183.62, 0 200" stroke="#c92a2a" stroke-width="2" fill="none"/></g></g><g stroke-linecap="round"><g transform="translate(3884.821766837167 750) rotate(0 0 100)"><path d="M0 0 C0 33.33, 0 166.67, 0 200 M0 0 C0 33.33, 0 166.67, 0 200" stroke="#c92a2a" stroke-width="2" fill="none"/></g><g transform="translate(3884.821766837167 750) rotate(0 0 100)"><path d="M-10.26 171.81 C-7.07 180.56, -3.89 189.32, 0 200 M-10.26 171.81 C-7.73 178.77, -5.2 185.72, 0 200" stroke="#c92a2a" stroke-width="2" fill="none"/></g><g transform="translate(3884.821766837167 750) rotate(0 0 100)"><path d="M10.26 171.81 C7.07 180.56, 3.89 189.32, 0 200 M10.26 171.81 C7.73 178.77, 5.2 185.72, 0 200" stroke="#c92a2a" stroke-width="2" fill="none"/></g></g><g stroke-linecap="round"><g transform="translate(3884.821766837167 750) rotate(0 -1120 0)"><path d="M0 0 C-373.33 0, -1866.67 0, -2240 0 M0 0 C-373.33 0, -1866.67 0, -2240 0" stroke="#c92a2a" stroke-width="2" fill="none"/></g></g><g transform="translate(2444.821766837167 710) rotate(0 328 20.5)"><text x="328" y="33" font-family="Helvetica, Segoe UI Emoji" font-size="36px" fill="#000000" text-anchor="middle" style="white-space: pre;" direction="ltr">666-year, universal reign of Pagan Rome</text></g><g stroke-linecap="round"><g transform="translate(5484.821766837167 870) rotate(0 -0.24789532200964004 39.36365985626867)"><path d="M0 0 C-0.08 13.12, -0.41 65.61, -0.5 78.73 M0 0 C-0.08 13.12, -0.41 65.61, -0.5 78.73" stroke="#364fc7" stroke-width="2" fill="none"/></g><g transform="translate(5484.821766837167 870) rotate(0 -0.24789532200964004 39.36365985626867)"><path d="M-10.58 50.47 C-8.36 56.69, -6.14 62.91, -0.5 78.73 M-10.58 50.47 C-7.65 58.67, -4.73 66.87, -0.5 78.73" stroke="#364fc7" stroke-width="2" fill="none"/></g><g transform="translate(5484.821766837167 870) rotate(0 -0.24789532200964004 39.36365985626867)"><path d="M9.94 50.6 C7.64 56.79, 5.35 62.98, -0.5 78.73 M9.94 50.6 C6.91 58.76, 3.89 66.92, -0.5 78.73" stroke="#364fc7" stroke-width="2" fill="none"/></g></g><g stroke-linecap="round"><g transform="translate(5644.821766837167 870) rotate(0 -0.31022941335493215 39.36365985626867)"><path d="M0 0 C-0.1 13.12, -0.52 65.61, -0.62 78.73 M0 0 C-0.1 13.12, -0.52 65.61, -0.62 78.73" stroke="#364fc7" stroke-width="2" fill="none"/></g><g transform="translate(5644.821766837167 870) rotate(0 -0.31022941335493215 39.36365985626867)"><path d="M-10.66 50.46 C-7.77 58.6, -4.88 66.74, -0.62 78.73 M-10.66 50.46 C-7.54 59.23, -4.43 68, -0.62 78.73" stroke="#364fc7" stroke-width="2" fill="none"/></g><g transform="translate(5644.821766837167 870) rotate(0 -0.31022941335493215 39.36365985626867)"><path d="M9.86 50.62 C6.84 58.71, 3.82 66.81, -0.62 78.73 M9.86 50.62 C6.61 59.34, 3.36 68.06, -0.62 78.73" stroke="#364fc7" stroke-width="2" fill="none"/></g></g><g stroke-linecap="round"><g transform="translate(5484.821766837167 870) rotate(0 80 0)"><path d="M0 0 C26.67 0, 133.33 0, 160 0 M0 0 C26.67 0, 133.33 0, 160 0" stroke="#364fc7" stroke-width="2" fill="none"/></g></g><g transform="translate(5484.821766837167 850) rotate(0 75.5 9)"><text x="75.5" y="14" font-family="Helvetica, Segoe UI Emoji" font-size="16px" fill="#000000" text-anchor="middle" style="white-space: pre;" direction="ltr">2 witnesses lay dead</text></g><a href="[[723BC]]"><g transform="translate(10 956.9567198309813) rotate(0 42.5 11.5)"><text x="42.5" y="18" font-family="Helvetica, Segoe UI Emoji" font-size="20px" fill="#000000" text-anchor="middle" style="white-space: pre;" direction="ltr">[[723BC]]</text></g></a><a href="[[677BC]]"><g transform="translate(170.91935288256445 956.4356204158801) rotate(0 42.5 11.5)"><text x="42.5" y="18" font-family="Helvetica, Segoe UI Emoji" font-size="20px" fill="#000000" text-anchor="middle" style="white-space: pre;" direction="ltr">[[677BC]]</text></g></a><a href="[[608BC]]"><g transform="translate(330.6364037786857 956.9516251713683) rotate(0 42.5 11.5)"><text x="42.5" y="18" font-family="Helvetica, Segoe UI Emoji" font-size="20px" fill="#000000" text-anchor="middle" style="white-space: pre;" direction="ltr">[[608BC]]</text></g></a><a href="[[606BC]]"><g transform="translate(491.4363857077069 956.7920710693422) rotate(0 42.5 11.5)"><text x="42.5" y="18" font-family="Helvetica, Segoe UI Emoji" font-size="20px" fill="#000000" text-anchor="middle" style="white-space: pre;" direction="ltr">[[606BC]]</text></g></a><a href="[[538BC]]"><g transform="translate(650.6204580076983 956.4763576334185) rotate(0 42.5 11.5)"><text x="42.5" y="18" font-family="Helvetica, Segoe UI Emoji" font-size="20px" fill="#000000" text-anchor="middle" style="white-space: pre;" direction="ltr">[[538BC]]</text></g></a><a href="[[536BC]]"><g transform="translate(810.7414863110771 955.8041935440326) rotate(0 42.5 11.5)"><text x="42.5" y="18" font-family="Helvetica, Segoe UI Emoji" font-size="20px" fill="#000000" text-anchor="middle" style="white-space: pre;" direction="ltr">[[536BC]]</text></g></a><a href="[[457BC]]"><g transform="translate(970.9304099770216 956.7750972287012) rotate(0 42.5 11.5)"><text x="42.5" y="18" font-family="Helvetica, Segoe UI Emoji" font-size="20px" fill="#000000" text-anchor="middle" style="white-space: pre;" direction="ltr">[[457BC]]</text></g></a><a href="[[408BC]]"><g transform="translate(1130.895278946503 956.099538371187) rotate(0 42.5 11.5)"><text x="42.5" y="18" font-family="Helvetica, Segoe UI Emoji" font-size="20px" fill="#000000" text-anchor="middle" style="white-space: pre;" direction="ltr">[[408BC]]</text></g></a><a href="[[332BC]]"><g transform="translate(1290.7718839446493 956.3779093577003) rotate(0 42.5 11.5)"><text x="42.5" y="18" font-family="Helvetica, Segoe UI Emoji" font-size="20px" fill="#000000" text-anchor="middle" style="white-space: pre;" direction="ltr">[[332BC]]</text></g></a><a href="[[164BC]]"><g transform="translate(1450.7265686097444 956.3541459808027) rotate(0 42.5 11.5)"><text x="42.5" y="18" font-family="Helvetica, Segoe UI Emoji" font-size="20px" fill="#000000" text-anchor="middle" style="white-space: pre;" direction="ltr">[[164BC]]</text></g></a><a href="[[158BC]]"><g transform="translate(1610.9460451888417 956.5951745179059) rotate(0 42.5 11.5)"><text x="42.5" y="18" font-family="Helvetica, Segoe UI Emoji" font-size="20px" fill="#000000" text-anchor="middle" style="white-space: pre;" direction="ltr">[[158BC]]</text></g></a><a href="[[63BC]]"><g transform="translate(1777.0117881170136 956.629122199188) rotate(0 37 11.5)"><text x="37" y="18" font-family="Helvetica, Segoe UI Emoji" font-size="20px" fill="#000000" text-anchor="middle" style="white-space: pre;" direction="ltr">[[63BC]]</text></g></a><a href="[[27AD]]"><g transform="translate(2097.021923588606 950.6653745531296) rotate(0 37 11.5)"><text x="37" y="18" font-family="Helvetica, Segoe UI Emoji" font-size="20px" fill="#000000" text-anchor="middle" style="white-space: pre;" direction="ltr">[[27AD]]</text></g></a><a href="[[31AD]]"><g transform="translate(2257.5299554586013 950.5092152192318) rotate(0 37 11.5)"><text x="37" y="18" font-family="Helvetica, Segoe UI Emoji" font-size="20px" fill="#000000" text-anchor="middle" style="white-space: pre;" direction="ltr">[[31AD]]</text></g></a><a href="[[34AD]]"><g transform="translate(2416.751370208004 950.7298751475656) rotate(0 37 11.5)"><text x="37" y="18" font-family="Helvetica, Segoe UI Emoji" font-size="20px" fill="#000000" text-anchor="middle" style="white-space: pre;" direction="ltr">[[34AD]]</text></g></a><a href="[[66AD]]"><g transform="translate(2576.5329216985624 950.1663436382823) rotate(0 37 11.5)"><text x="37" y="18" font-family="Helvetica, Segoe UI Emoji" font-size="20px" fill="#000000" text-anchor="middle" style="white-space: pre;" direction="ltr">[[66AD]]</text></g></a><a href="[[68AD]]"><g transform="translate(2737.495852497738 950) rotate(0 37 11.5)"><text x="37" y="18" font-family="Helvetica, Segoe UI Emoji" font-size="20px" fill="#000000" text-anchor="middle" style="white-space: pre;" direction="ltr">[[68AD]]</text></g></a><a href="[[70AD]]"><g transform="translate(2897.2638249157826 950.3123186677955) rotate(0 37 11.5)"><text x="37" y="18" font-family="Helvetica, Segoe UI Emoji" font-size="20px" fill="#000000" text-anchor="middle" style="white-space: pre;" direction="ltr">[[70AD]]</text></g></a><a href="[[321AD]]"><g transform="translate(3051.670982827085 951.0218252065918) rotate(0 42.5 11.5)"><text x="42.5" y="18" font-family="Helvetica, Segoe UI Emoji" font-size="20px" fill="#000000" text-anchor="middle" style="white-space: pre;" direction="ltr">[[321AD]]</text></g></a><a href="[[330AD]]"><g transform="translate(3212.267278668414 950.9539298440275) rotate(0 42.5 11.5)"><text x="42.5" y="18" font-family="Helvetica, Segoe UI Emoji" font-size="20px" fill="#000000" text-anchor="middle" style="white-space: pre;" direction="ltr">[[330AD]]</text></g></a><a href="[[490AD]]"><g transform="translate(3371.172979981893 951.3069857293615) rotate(0 42.5 11.5)"><text x="42.5" y="18" font-family="Helvetica, Segoe UI Emoji" font-size="20px" fill="#000000" text-anchor="middle" style="white-space: pre;" direction="ltr">[[490AD]]</text></g></a><a href="[[493AD]]"><g transform="translate(3531.949198534018 950.8894292495913) rotate(0 42.5 11.5)"><text x="42.5" y="18" font-family="Helvetica, Segoe UI Emoji" font-size="20px" fill="#000000" text-anchor="middle" style="white-space: pre;" direction="ltr">[[493AD]]</text></g></a><a href="[[496AD]]"><g transform="translate(3691.340351689831 950.6721640893858) rotate(0 42.5 11.5)"><text x="42.5" y="18" font-family="Helvetica, Segoe UI Emoji" font-size="20px" fill="#000000" text-anchor="middle" style="white-space: pre;" direction="ltr">[[496AD]]</text></g></a><a href="[[508AD]]"><g transform="translate(3851.980779516827 950.7400594519501) rotate(0 42.5 11.5)"><text x="42.5" y="18" font-family="Helvetica, Segoe UI Emoji" font-size="20px" fill="#000000" text-anchor="middle" style="white-space: pre;" direction="ltr">[[508AD]]</text></g></a><a href="[[533-534AD]]"><g transform="translate(4011.656421447282 950.6726514192685) rotate(0 62.5 11.5)"><text x="62.5" y="18" font-family="Helvetica, Segoe UI Emoji" font-size="20px" fill="#000000" text-anchor="middle" style="white-space: pre;" direction="ltr">[[533-534AD]]</text></g></a><a href="[[534AD]]"><g transform="translate(4171.764907329613 951.4904098149041) rotate(0 42.5 11.5)"><text x="42.5" y="18" font-family="Helvetica, Segoe UI Emoji" font-size="20px" fill="#000000" text-anchor="middle" style="white-space: pre;" direction="ltr">[[534AD]]</text></g></a><a href="[[538AD]]"><g transform="translate(4332.667675290002 951.1108760140589) rotate(0 42.5 11.5)"><text x="42.5" y="18" font-family="Helvetica, Segoe UI Emoji" font-size="20px" fill="#000000" text-anchor="middle" style="white-space: pre;" direction="ltr">[[538AD]]</text></g></a><a href="[[1299AD]]"><g transform="translate(4485.499786475594 951.5412751696565) rotate(0 48.5 11.5)"><text x="48.5" y="18" font-family="Helvetica, Segoe UI Emoji" font-size="20px" fill="#000000" text-anchor="middle" style="white-space: pre;" direction="ltr">[[1299AD]]</text></g></a><a href="[[1449AD]]"><g transform="translate(4645.119182408383 950.57483342936) rotate(0 48.5 11.5)"><text x="48.5" y="18" font-family="Helvetica, Segoe UI Emoji" font-size="20px" fill="#000000" text-anchor="middle" style="white-space: pre;" direction="ltr">[[1449AD]]</text></g></a><a href="[[1755]]"><g transform="translate(4810.434236339278 950.2305141048819) rotate(0 34.5 11.5)"><text x="34.5" y="18" font-family="Helvetica, Segoe UI Emoji" font-size="20px" fill="#000000" text-anchor="middle" style="white-space: pre;" direction="ltr">[[1755]]</text></g></a><a href="[[1773]]"><g transform="translate(4970.773572677794 951.8151655414005) rotate(0 34.5 11.5)"><text x="34.5" y="18" font-family="Helvetica, Segoe UI Emoji" font-size="20px" fill="#000000" text-anchor="middle" style="white-space: pre;" direction="ltr">[[1773]]</text></g></a><a href="[[1780]]"><g transform="translate(5131.022916465594 951.0365343417284) rotate(0 34.5 11.5)"><text x="34.5" y="18" font-family="Helvetica, Segoe UI Emoji" font-size="20px" fill="#000000" text-anchor="middle" style="white-space: pre;" direction="ltr">[[1780]]</text></g></a><a href="[[1798]]"><g transform="translate(5772.901402311333 949.7273197125373) rotate(0 34.5 11.5)"><text x="34.5" y="18" font-family="Helvetica, Segoe UI Emoji" font-size="20px" fill="#000000" text-anchor="middle" style="white-space: pre;" direction="ltr">[[1798]]</text></g></a><a href="[[1833]]"><g transform="translate(6093.298567077855 950.2608246227903) rotate(0 34.5 11.5)"><text x="34.5" y="18" font-family="Helvetica, Segoe UI Emoji" font-size="20px" fill="#000000" text-anchor="middle" style="white-space: pre;" direction="ltr">[[1833]]</text></g></a><a href="[[1838]]"><g transform="translate(6255.000764549445 950.3317495174399) rotate(0 34.5 11.5)"><text x="34.5" y="18" font-family="Helvetica, Segoe UI Emoji" font-size="20px" fill="#000000" text-anchor="middle" style="white-space: pre;" direction="ltr">[[1838]]</text></g></a><a href="[[08-11-1840]]"><g transform="translate(6387.154698078838 950.3760775765959) rotate(0 62.5 11.5)"><text x="62.5" y="18" font-family="Helvetica, Segoe UI Emoji" font-size="20px" fill="#000000" text-anchor="middle" style="white-space: pre;" direction="ltr">[[08-11-1840]]</text></g></a><a href="[[1842]]"><g transform="translate(6572.784361591646 950.5400913954729) rotate(0 34.5 11.5)"><text x="34.5" y="18" font-family="Helvetica, Segoe UI Emoji" font-size="20px" fill="#000000" text-anchor="middle" style="white-space: pre;" direction="ltr">[[1842]]</text></g></a><a href="[[04-19-1843]]"><g transform="translate(6707.256652614897 950.3760775765959) rotate(0 63.5 11.5)"><text x="63.5" y="18" font-family="Helvetica, Segoe UI Emoji" font-size="20px" fill="#000000" text-anchor="middle" style="white-space: pre;" direction="ltr">[[04-19-1843]]</text></g></a><a href="[[08-15-1844]]"><g transform="translate(6867.154698078838 950.3760775765959) rotate(0 63.5 11.5)"><text x="63.5" y="18" font-family="Helvetica, Segoe UI Emoji" font-size="20px" fill="#000000" text-anchor="middle" style="white-space: pre;" direction="ltr">[[08-15-1844]]</text></g></a><a href="[[10-22-1844]]"><g transform="translate(7024.821766837167 950) rotate(0 63.5 11.5)"><text x="63.5" y="18" font-family="Helvetica, Segoe UI Emoji" font-size="20px" fill="#000000" text-anchor="middle" style="white-space: pre;" direction="ltr">[[10-22-1844]]</text></g></a><a href="[[31BC]]"><g transform="translate(1935.2992702424663 955.4202068896489) rotate(0 37 11.5)"><text x="37" y="18" font-family="Helvetica, Segoe UI Emoji" font-size="20px" fill="#000000" text-anchor="middle" style="white-space: pre;" direction="ltr">[[31BC]]</text></g></a><a href="[[1793]]"><g transform="translate(5452.901402311333 949.7273197125373) rotate(0 34.5 11.5)"><text x="34.5" y="18" font-family="Helvetica, Segoe UI Emoji" font-size="20px" fill="#000000" text-anchor="middle" style="white-space: pre;" direction="ltr">[[1793]]</text></g></a><a href="[[1796]]"><g transform="translate(5612.901402311333 949.7273197125373) rotate(0 34.5 11.5)"><text x="34.5" y="18" font-family="Helvetica, Segoe UI Emoji" font-size="20px" fill="#000000" text-anchor="middle" style="white-space: pre;" direction="ltr">[[1796]]</text></g></a><a href="[[1804]]"><g transform="translate(5932.760505448208 948.6855401278401) rotate(0 34.5 11.5)"><text x="34.5" y="18" font-family="Helvetica, Segoe UI Emoji" font-size="20px" fill="#000000" text-anchor="middle" style="white-space: pre;" direction="ltr">[[1804]]</text></g></a><a href="[[1789]]"><g transform="translate(5291.069729390474 949.1795604727981) rotate(0 34.5 11.5)"><text x="34.5" y="18" font-family="Helvetica, Segoe UI Emoji" font-size="20px" fill="#000000" text-anchor="middle" style="white-space: pre;" direction="ltr">[[1789]]</text></g></a><g transform="translate(2997.608577290659 145.5983372590298) rotate(0 567 32)"><text x="567" y="26" font-family="Helvetica, Segoe UI Emoji" font-size="28px" fill="#364fc7" text-anchor="middle" style="white-space: pre;" direction="ltr">--  The plan is to make the dates and title of this chart clickable. For now, all of these dates, </text><text x="567" y="58" font-family="Helvetica, Segoe UI Emoji" font-size="28px" fill="#364fc7" text-anchor="middle" style="white-space: pre;" direction="ltr">and general information can be found on "The Time Prophecies"page --</text></g></svg>